M48
;GenerationSoftware,Autodesk,EAGLE,9.5.2*%
;CreationDate,2020-12-06T14:13:42Z*%
FMAT,2
ICI,OFF
METRIC,TZ,000.000
T6C0.350
T5C0.914
T4C1.100
T3C1.600
T2C2.200
%
G90
M71
T2
X3810Y26120
X3810Y14520
T3
X32148Y8636
T4
X98948Y8636
X3710Y18070
X3710Y22570
T5
X118364Y17780
X118364Y20320
X118364Y22860
X6210Y16820
X6210Y19193
X6210Y21447
X6210Y23820
T6
X20320Y16002
X111760Y7620
X110490Y20320
X47625Y5715
X17018Y24384
X10922Y26924
X18034Y16764
X86744Y8890
X87576Y8890
X36830Y16510
X95885Y16510
X111125Y27940
X72390Y18415
X106045Y4445
X16256Y25146
X19050Y25400
X27940Y5715
X103505Y5715
X73025Y8255
M30