G04 #@! TF.GenerationSoftware,KiCad,Pcbnew,(5.1.5)-3*
G04 #@! TF.CreationDate,2021-07-31T12:33:59+02:00*
G04 #@! TF.ProjectId,FlashStickCM4,466c6173-6853-4746-9963-6b434d342e6b,rev?*
G04 #@! TF.SameCoordinates,Original*
G04 #@! TF.FileFunction,Paste,Top*
G04 #@! TF.FilePolarity,Positive*
%FSLAX46Y46*%
G04 Gerber Fmt 4.6, Leading zero omitted, Abs format (unit mm)*
G04 Created by KiCad (PCBNEW (5.1.5)-3) date 2021-07-31 12:33:59*
%MOMM*%
%LPD*%
G04 APERTURE LIST*
%ADD10C,0.100000*%
%ADD11C,0.150000*%
%ADD12C,0.300000*%
%ADD13C,0.400000*%
%ADD14R,1.400000X1.200000*%
%ADD15R,0.400000X0.650000*%
%ADD16R,0.200000X0.700000*%
G04 APERTURE END LIST*
D10*
D11*
X177002200Y-166007200D02*
X177002200Y-198007200D01*
X285002200Y-198007200D01*
X285002200Y-166007200D01*
X177002200Y-166007200D01*
D10*
D11*
X10000000Y-10000000D02*
X10000000Y-200007200D01*
X287002200Y-200007200D01*
X287002200Y-10000000D01*
X10000000Y-10000000D01*
D10*
D11*
X12000000Y-12000000D02*
X12000000Y-198007200D01*
X285002200Y-198007200D01*
X285002200Y-12000000D01*
X12000000Y-12000000D01*
D10*
D11*
X60000000Y-12000000D02*
X60000000Y-10000000D01*
D10*
D11*
X110000000Y-12000000D02*
X110000000Y-10000000D01*
D10*
D11*
X160000000Y-12000000D02*
X160000000Y-10000000D01*
D10*
D11*
X210000000Y-12000000D02*
X210000000Y-10000000D01*
D10*
D11*
X260000000Y-12000000D02*
X260000000Y-10000000D01*
D10*
D11*
X36065476Y-11588095D02*
X35322619Y-11588095D01*
X35694047Y-11588095D02*
X35694047Y-10288095D01*
X35570238Y-10473809D01*
X35446428Y-10597619D01*
X35322619Y-10659523D01*
D10*
D11*
X85322619Y-10411904D02*
X85384523Y-10350000D01*
X85508333Y-10288095D01*
X85817857Y-10288095D01*
X85941666Y-10350000D01*
X86003571Y-10411904D01*
X86065476Y-10535714D01*
X86065476Y-10659523D01*
X86003571Y-10845238D01*
X85260714Y-11588095D01*
X86065476Y-11588095D01*
D10*
D11*
X135260714Y-10288095D02*
X136065476Y-10288095D01*
X135632142Y-10783333D01*
X135817857Y-10783333D01*
X135941666Y-10845238D01*
X136003571Y-10907142D01*
X136065476Y-11030952D01*
X136065476Y-11340476D01*
X136003571Y-11464285D01*
X135941666Y-11526190D01*
X135817857Y-11588095D01*
X135446428Y-11588095D01*
X135322619Y-11526190D01*
X135260714Y-11464285D01*
D10*
D11*
X185941666Y-10721428D02*
X185941666Y-11588095D01*
X185632142Y-10226190D02*
X185322619Y-11154761D01*
X186127380Y-11154761D01*
D10*
D11*
X236003571Y-10288095D02*
X235384523Y-10288095D01*
X235322619Y-10907142D01*
X235384523Y-10845238D01*
X235508333Y-10783333D01*
X235817857Y-10783333D01*
X235941666Y-10845238D01*
X236003571Y-10907142D01*
X236065476Y-11030952D01*
X236065476Y-11340476D01*
X236003571Y-11464285D01*
X235941666Y-11526190D01*
X235817857Y-11588095D01*
X235508333Y-11588095D01*
X235384523Y-11526190D01*
X235322619Y-11464285D01*
D10*
D11*
X285941666Y-10288095D02*
X285694047Y-10288095D01*
X285570238Y-10350000D01*
X285508333Y-10411904D01*
X285384523Y-10597619D01*
X285322619Y-10845238D01*
X285322619Y-11340476D01*
X285384523Y-11464285D01*
X285446428Y-11526190D01*
X285570238Y-11588095D01*
X285817857Y-11588095D01*
X285941666Y-11526190D01*
X286003571Y-11464285D01*
X286065476Y-11340476D01*
X286065476Y-11030952D01*
X286003571Y-10907142D01*
X285941666Y-10845238D01*
X285817857Y-10783333D01*
X285570238Y-10783333D01*
X285446428Y-10845238D01*
X285384523Y-10907142D01*
X285322619Y-11030952D01*
D10*
D11*
X60000000Y-198007200D02*
X60000000Y-200007200D01*
D10*
D11*
X110000000Y-198007200D02*
X110000000Y-200007200D01*
D10*
D11*
X160000000Y-198007200D02*
X160000000Y-200007200D01*
D10*
D11*
X210000000Y-198007200D02*
X210000000Y-200007200D01*
D10*
D11*
X260000000Y-198007200D02*
X260000000Y-200007200D01*
D10*
D11*
X36065476Y-199595295D02*
X35322619Y-199595295D01*
X35694047Y-199595295D02*
X35694047Y-198295295D01*
X35570238Y-198481009D01*
X35446428Y-198604819D01*
X35322619Y-198666723D01*
D10*
D11*
X85322619Y-198419104D02*
X85384523Y-198357200D01*
X85508333Y-198295295D01*
X85817857Y-198295295D01*
X85941666Y-198357200D01*
X86003571Y-198419104D01*
X86065476Y-198542914D01*
X86065476Y-198666723D01*
X86003571Y-198852438D01*
X85260714Y-199595295D01*
X86065476Y-199595295D01*
D10*
D11*
X135260714Y-198295295D02*
X136065476Y-198295295D01*
X135632142Y-198790533D01*
X135817857Y-198790533D01*
X135941666Y-198852438D01*
X136003571Y-198914342D01*
X136065476Y-199038152D01*
X136065476Y-199347676D01*
X136003571Y-199471485D01*
X135941666Y-199533390D01*
X135817857Y-199595295D01*
X135446428Y-199595295D01*
X135322619Y-199533390D01*
X135260714Y-199471485D01*
D10*
D11*
X185941666Y-198728628D02*
X185941666Y-199595295D01*
X185632142Y-198233390D02*
X185322619Y-199161961D01*
X186127380Y-199161961D01*
D10*
D11*
X236003571Y-198295295D02*
X235384523Y-198295295D01*
X235322619Y-198914342D01*
X235384523Y-198852438D01*
X235508333Y-198790533D01*
X235817857Y-198790533D01*
X235941666Y-198852438D01*
X236003571Y-198914342D01*
X236065476Y-199038152D01*
X236065476Y-199347676D01*
X236003571Y-199471485D01*
X235941666Y-199533390D01*
X235817857Y-199595295D01*
X235508333Y-199595295D01*
X235384523Y-199533390D01*
X235322619Y-199471485D01*
D10*
D11*
X285941666Y-198295295D02*
X285694047Y-198295295D01*
X285570238Y-198357200D01*
X285508333Y-198419104D01*
X285384523Y-198604819D01*
X285322619Y-198852438D01*
X285322619Y-199347676D01*
X285384523Y-199471485D01*
X285446428Y-199533390D01*
X285570238Y-199595295D01*
X285817857Y-199595295D01*
X285941666Y-199533390D01*
X286003571Y-199471485D01*
X286065476Y-199347676D01*
X286065476Y-199038152D01*
X286003571Y-198914342D01*
X285941666Y-198852438D01*
X285817857Y-198790533D01*
X285570238Y-198790533D01*
X285446428Y-198852438D01*
X285384523Y-198914342D01*
X285322619Y-199038152D01*
D10*
D11*
X10000000Y-60000000D02*
X12000000Y-60000000D01*
D10*
D11*
X10000000Y-110000000D02*
X12000000Y-110000000D01*
D10*
D11*
X10000000Y-160000000D02*
X12000000Y-160000000D01*
D10*
D11*
X10690476Y-35216666D02*
X11309523Y-35216666D01*
X10566666Y-35588095D02*
X11000000Y-34288095D01*
X11433333Y-35588095D01*
D10*
D11*
X11092857Y-84907142D02*
X11278571Y-84969047D01*
X11340476Y-85030952D01*
X11402380Y-85154761D01*
X11402380Y-85340476D01*
X11340476Y-85464285D01*
X11278571Y-85526190D01*
X11154761Y-85588095D01*
X10659523Y-85588095D01*
X10659523Y-84288095D01*
X11092857Y-84288095D01*
X11216666Y-84350000D01*
X11278571Y-84411904D01*
X11340476Y-84535714D01*
X11340476Y-84659523D01*
X11278571Y-84783333D01*
X11216666Y-84845238D01*
X11092857Y-84907142D01*
X10659523Y-84907142D01*
D10*
D11*
X11402380Y-135464285D02*
X11340476Y-135526190D01*
X11154761Y-135588095D01*
X11030952Y-135588095D01*
X10845238Y-135526190D01*
X10721428Y-135402380D01*
X10659523Y-135278571D01*
X10597619Y-135030952D01*
X10597619Y-134845238D01*
X10659523Y-134597619D01*
X10721428Y-134473809D01*
X10845238Y-134350000D01*
X11030952Y-134288095D01*
X11154761Y-134288095D01*
X11340476Y-134350000D01*
X11402380Y-134411904D01*
D10*
D11*
X10659523Y-185588095D02*
X10659523Y-184288095D01*
X10969047Y-184288095D01*
X11154761Y-184350000D01*
X11278571Y-184473809D01*
X11340476Y-184597619D01*
X11402380Y-184845238D01*
X11402380Y-185030952D01*
X11340476Y-185278571D01*
X11278571Y-185402380D01*
X11154761Y-185526190D01*
X10969047Y-185588095D01*
X10659523Y-185588095D01*
D10*
D11*
X287002200Y-60000000D02*
X285002200Y-60000000D01*
D10*
D11*
X287002200Y-110000000D02*
X285002200Y-110000000D01*
D10*
D11*
X287002200Y-160000000D02*
X285002200Y-160000000D01*
D10*
D11*
X285692676Y-35216666D02*
X286311723Y-35216666D01*
X285568866Y-35588095D02*
X286002200Y-34288095D01*
X286435533Y-35588095D01*
D10*
D11*
X286095057Y-84907142D02*
X286280771Y-84969047D01*
X286342676Y-85030952D01*
X286404580Y-85154761D01*
X286404580Y-85340476D01*
X286342676Y-85464285D01*
X286280771Y-85526190D01*
X286156961Y-85588095D01*
X285661723Y-85588095D01*
X285661723Y-84288095D01*
X286095057Y-84288095D01*
X286218866Y-84350000D01*
X286280771Y-84411904D01*
X286342676Y-84535714D01*
X286342676Y-84659523D01*
X286280771Y-84783333D01*
X286218866Y-84845238D01*
X286095057Y-84907142D01*
X285661723Y-84907142D01*
D10*
D11*
X286404580Y-135464285D02*
X286342676Y-135526190D01*
X286156961Y-135588095D01*
X286033152Y-135588095D01*
X285847438Y-135526190D01*
X285723628Y-135402380D01*
X285661723Y-135278571D01*
X285599819Y-135030952D01*
X285599819Y-134845238D01*
X285661723Y-134597619D01*
X285723628Y-134473809D01*
X285847438Y-134350000D01*
X286033152Y-134288095D01*
X286156961Y-134288095D01*
X286342676Y-134350000D01*
X286404580Y-134411904D01*
D10*
D11*
X285661723Y-185588095D02*
X285661723Y-184288095D01*
X285971247Y-184288095D01*
X286156961Y-184350000D01*
X286280771Y-184473809D01*
X286342676Y-184597619D01*
X286404580Y-184845238D01*
X286404580Y-185030952D01*
X286342676Y-185278571D01*
X286280771Y-185402380D01*
X286156961Y-185526190D01*
X285971247Y-185588095D01*
X285661723Y-185588095D01*
D10*
D11*
X200434342Y-193785771D02*
X200434342Y-192285771D01*
X200791485Y-192285771D01*
X201005771Y-192357200D01*
X201148628Y-192500057D01*
X201220057Y-192642914D01*
X201291485Y-192928628D01*
X201291485Y-193142914D01*
X201220057Y-193428628D01*
X201148628Y-193571485D01*
X201005771Y-193714342D01*
X200791485Y-193785771D01*
X200434342Y-193785771D01*
X202577200Y-193785771D02*
X202577200Y-193000057D01*
X202505771Y-192857200D01*
X202362914Y-192785771D01*
X202077200Y-192785771D01*
X201934342Y-192857200D01*
X202577200Y-193714342D02*
X202434342Y-193785771D01*
X202077200Y-193785771D01*
X201934342Y-193714342D01*
X201862914Y-193571485D01*
X201862914Y-193428628D01*
X201934342Y-193285771D01*
X202077200Y-193214342D01*
X202434342Y-193214342D01*
X202577200Y-193142914D01*
X203077200Y-192785771D02*
X203648628Y-192785771D01*
X203291485Y-192285771D02*
X203291485Y-193571485D01*
X203362914Y-193714342D01*
X203505771Y-193785771D01*
X203648628Y-193785771D01*
X204720057Y-193714342D02*
X204577200Y-193785771D01*
X204291485Y-193785771D01*
X204148628Y-193714342D01*
X204077200Y-193571485D01*
X204077200Y-193000057D01*
X204148628Y-192857200D01*
X204291485Y-192785771D01*
X204577200Y-192785771D01*
X204720057Y-192857200D01*
X204791485Y-193000057D01*
X204791485Y-193142914D01*
X204077200Y-193285771D01*
X205434342Y-193642914D02*
X205505771Y-193714342D01*
X205434342Y-193785771D01*
X205362914Y-193714342D01*
X205434342Y-193642914D01*
X205434342Y-193785771D01*
X205434342Y-192857200D02*
X205505771Y-192928628D01*
X205434342Y-193000057D01*
X205362914Y-192928628D01*
X205434342Y-192857200D01*
X205434342Y-193000057D01*
D10*
D11*
X177002200Y-194507200D02*
X285002200Y-194507200D01*
D10*
D11*
X178434342Y-196585771D02*
X178434342Y-195085771D01*
X179291485Y-196585771D02*
X178648628Y-195728628D01*
X179291485Y-195085771D02*
X178434342Y-195942914D01*
X179934342Y-196585771D02*
X179934342Y-195585771D01*
X179934342Y-195085771D02*
X179862914Y-195157200D01*
X179934342Y-195228628D01*
X180005771Y-195157200D01*
X179934342Y-195085771D01*
X179934342Y-195228628D01*
X181505771Y-196442914D02*
X181434342Y-196514342D01*
X181220057Y-196585771D01*
X181077200Y-196585771D01*
X180862914Y-196514342D01*
X180720057Y-196371485D01*
X180648628Y-196228628D01*
X180577200Y-195942914D01*
X180577200Y-195728628D01*
X180648628Y-195442914D01*
X180720057Y-195300057D01*
X180862914Y-195157200D01*
X181077200Y-195085771D01*
X181220057Y-195085771D01*
X181434342Y-195157200D01*
X181505771Y-195228628D01*
X182791485Y-196585771D02*
X182791485Y-195800057D01*
X182720057Y-195657200D01*
X182577200Y-195585771D01*
X182291485Y-195585771D01*
X182148628Y-195657200D01*
X182791485Y-196514342D02*
X182648628Y-196585771D01*
X182291485Y-196585771D01*
X182148628Y-196514342D01*
X182077200Y-196371485D01*
X182077200Y-196228628D01*
X182148628Y-196085771D01*
X182291485Y-196014342D01*
X182648628Y-196014342D01*
X182791485Y-195942914D01*
X184148628Y-196585771D02*
X184148628Y-195085771D01*
X184148628Y-196514342D02*
X184005771Y-196585771D01*
X183720057Y-196585771D01*
X183577200Y-196514342D01*
X183505771Y-196442914D01*
X183434342Y-196300057D01*
X183434342Y-195871485D01*
X183505771Y-195728628D01*
X183577200Y-195657200D01*
X183720057Y-195585771D01*
X184005771Y-195585771D01*
X184148628Y-195657200D01*
X186005771Y-195800057D02*
X186505771Y-195800057D01*
X186720057Y-196585771D02*
X186005771Y-196585771D01*
X186005771Y-195085771D01*
X186720057Y-195085771D01*
X187362914Y-196442914D02*
X187434342Y-196514342D01*
X187362914Y-196585771D01*
X187291485Y-196514342D01*
X187362914Y-196442914D01*
X187362914Y-196585771D01*
X188077200Y-196585771D02*
X188077200Y-195085771D01*
X188434342Y-195085771D01*
X188648628Y-195157200D01*
X188791485Y-195300057D01*
X188862914Y-195442914D01*
X188934342Y-195728628D01*
X188934342Y-195942914D01*
X188862914Y-196228628D01*
X188791485Y-196371485D01*
X188648628Y-196514342D01*
X188434342Y-196585771D01*
X188077200Y-196585771D01*
X189577200Y-196442914D02*
X189648628Y-196514342D01*
X189577200Y-196585771D01*
X189505771Y-196514342D01*
X189577200Y-196442914D01*
X189577200Y-196585771D01*
X190220057Y-196157200D02*
X190934342Y-196157200D01*
X190077200Y-196585771D02*
X190577200Y-195085771D01*
X191077200Y-196585771D01*
X191577200Y-196442914D02*
X191648628Y-196514342D01*
X191577200Y-196585771D01*
X191505771Y-196514342D01*
X191577200Y-196442914D01*
X191577200Y-196585771D01*
X194577200Y-196585771D02*
X194577200Y-195085771D01*
X194720057Y-196014342D02*
X195148628Y-196585771D01*
X195148628Y-195585771D02*
X194577200Y-196157200D01*
X195791485Y-196585771D02*
X195791485Y-195585771D01*
X195791485Y-195085771D02*
X195720057Y-195157200D01*
X195791485Y-195228628D01*
X195862914Y-195157200D01*
X195791485Y-195085771D01*
X195791485Y-195228628D01*
X197148628Y-196514342D02*
X197005771Y-196585771D01*
X196720057Y-196585771D01*
X196577200Y-196514342D01*
X196505771Y-196442914D01*
X196434342Y-196300057D01*
X196434342Y-195871485D01*
X196505771Y-195728628D01*
X196577200Y-195657200D01*
X196720057Y-195585771D01*
X197005771Y-195585771D01*
X197148628Y-195657200D01*
X198434342Y-196585771D02*
X198434342Y-195800057D01*
X198362914Y-195657200D01*
X198220057Y-195585771D01*
X197934342Y-195585771D01*
X197791485Y-195657200D01*
X198434342Y-196514342D02*
X198291485Y-196585771D01*
X197934342Y-196585771D01*
X197791485Y-196514342D01*
X197720057Y-196371485D01*
X197720057Y-196228628D01*
X197791485Y-196085771D01*
X197934342Y-196014342D01*
X198291485Y-196014342D01*
X198434342Y-195942914D01*
X199791485Y-196585771D02*
X199791485Y-195085771D01*
X199791485Y-196514342D02*
X199648628Y-196585771D01*
X199362914Y-196585771D01*
X199220057Y-196514342D01*
X199148628Y-196442914D01*
X199077200Y-196300057D01*
X199077200Y-195871485D01*
X199148628Y-195728628D01*
X199220057Y-195657200D01*
X199362914Y-195585771D01*
X199648628Y-195585771D01*
X199791485Y-195657200D01*
X202077200Y-197157200D02*
X202005771Y-197085771D01*
X201862914Y-196871485D01*
X201791485Y-196728628D01*
X201720057Y-196514342D01*
X201648628Y-196157200D01*
X201648628Y-195871485D01*
X201720057Y-195514342D01*
X201791485Y-195300057D01*
X201862914Y-195157200D01*
X202005771Y-194942914D01*
X202077200Y-194871485D01*
X203362914Y-195085771D02*
X202648628Y-195085771D01*
X202577200Y-195800057D01*
X202648628Y-195728628D01*
X202791485Y-195657200D01*
X203148628Y-195657200D01*
X203291485Y-195728628D01*
X203362914Y-195800057D01*
X203434342Y-195942914D01*
X203434342Y-196300057D01*
X203362914Y-196442914D01*
X203291485Y-196514342D01*
X203148628Y-196585771D01*
X202791485Y-196585771D01*
X202648628Y-196514342D01*
X202577200Y-196442914D01*
X204077200Y-196442914D02*
X204148628Y-196514342D01*
X204077200Y-196585771D01*
X204005771Y-196514342D01*
X204077200Y-196442914D01*
X204077200Y-196585771D01*
X205577200Y-196585771D02*
X204720057Y-196585771D01*
X205148628Y-196585771D02*
X205148628Y-195085771D01*
X205005771Y-195300057D01*
X204862914Y-195442914D01*
X204720057Y-195514342D01*
X206220057Y-196442914D02*
X206291485Y-196514342D01*
X206220057Y-196585771D01*
X206148628Y-196514342D01*
X206220057Y-196442914D01*
X206220057Y-196585771D01*
X207648628Y-195085771D02*
X206934342Y-195085771D01*
X206862914Y-195800057D01*
X206934342Y-195728628D01*
X207077200Y-195657200D01*
X207434342Y-195657200D01*
X207577200Y-195728628D01*
X207648628Y-195800057D01*
X207720057Y-195942914D01*
X207720057Y-196300057D01*
X207648628Y-196442914D01*
X207577200Y-196514342D01*
X207434342Y-196585771D01*
X207077200Y-196585771D01*
X206934342Y-196514342D01*
X206862914Y-196442914D01*
X208220057Y-197157200D02*
X208291485Y-197085771D01*
X208434342Y-196871485D01*
X208505771Y-196728628D01*
X208577200Y-196514342D01*
X208648628Y-196157200D01*
X208648628Y-195871485D01*
X208577200Y-195514342D01*
X208505771Y-195300057D01*
X208434342Y-195157200D01*
X208291485Y-194942914D01*
X208220057Y-194871485D01*
X209362914Y-196014342D02*
X210505771Y-196014342D01*
X211077200Y-195085771D02*
X212005771Y-195085771D01*
X211505771Y-195657200D01*
X211720057Y-195657200D01*
X211862914Y-195728628D01*
X211934342Y-195800057D01*
X212005771Y-195942914D01*
X212005771Y-196300057D01*
X211934342Y-196442914D01*
X211862914Y-196514342D01*
X211720057Y-196585771D01*
X211291485Y-196585771D01*
X211148628Y-196514342D01*
X211077200Y-196442914D01*
D10*
D11*
X177002200Y-191507200D02*
X285002200Y-191507200D01*
D10*
D12*
X264411485Y-193785771D02*
X263911485Y-193071485D01*
X263554342Y-193785771D02*
X263554342Y-192285771D01*
X264125771Y-192285771D01*
X264268628Y-192357200D01*
X264340057Y-192428628D01*
X264411485Y-192571485D01*
X264411485Y-192785771D01*
X264340057Y-192928628D01*
X264268628Y-193000057D01*
X264125771Y-193071485D01*
X263554342Y-193071485D01*
X265625771Y-193714342D02*
X265482914Y-193785771D01*
X265197200Y-193785771D01*
X265054342Y-193714342D01*
X264982914Y-193571485D01*
X264982914Y-193000057D01*
X265054342Y-192857200D01*
X265197200Y-192785771D01*
X265482914Y-192785771D01*
X265625771Y-192857200D01*
X265697200Y-193000057D01*
X265697200Y-193142914D01*
X264982914Y-193285771D01*
X266197200Y-192785771D02*
X266554342Y-193785771D01*
X266911485Y-192785771D01*
X267482914Y-193642914D02*
X267554342Y-193714342D01*
X267482914Y-193785771D01*
X267411485Y-193714342D01*
X267482914Y-193642914D01*
X267482914Y-193785771D01*
X267482914Y-192857200D02*
X267554342Y-192928628D01*
X267482914Y-193000057D01*
X267411485Y-192928628D01*
X267482914Y-192857200D01*
X267482914Y-193000057D01*
D10*
D11*
X178362914Y-193714342D02*
X178577200Y-193785771D01*
X178934342Y-193785771D01*
X179077200Y-193714342D01*
X179148628Y-193642914D01*
X179220057Y-193500057D01*
X179220057Y-193357200D01*
X179148628Y-193214342D01*
X179077200Y-193142914D01*
X178934342Y-193071485D01*
X178648628Y-193000057D01*
X178505771Y-192928628D01*
X178434342Y-192857200D01*
X178362914Y-192714342D01*
X178362914Y-192571485D01*
X178434342Y-192428628D01*
X178505771Y-192357200D01*
X178648628Y-192285771D01*
X179005771Y-192285771D01*
X179220057Y-192357200D01*
X179862914Y-193785771D02*
X179862914Y-192785771D01*
X179862914Y-192285771D02*
X179791485Y-192357200D01*
X179862914Y-192428628D01*
X179934342Y-192357200D01*
X179862914Y-192285771D01*
X179862914Y-192428628D01*
X180434342Y-192785771D02*
X181220057Y-192785771D01*
X180434342Y-193785771D01*
X181220057Y-193785771D01*
X182362914Y-193714342D02*
X182220057Y-193785771D01*
X181934342Y-193785771D01*
X181791485Y-193714342D01*
X181720057Y-193571485D01*
X181720057Y-193000057D01*
X181791485Y-192857200D01*
X181934342Y-192785771D01*
X182220057Y-192785771D01*
X182362914Y-192857200D01*
X182434342Y-193000057D01*
X182434342Y-193142914D01*
X181720057Y-193285771D01*
X183077200Y-193642914D02*
X183148628Y-193714342D01*
X183077200Y-193785771D01*
X183005771Y-193714342D01*
X183077200Y-193642914D01*
X183077200Y-193785771D01*
X183077200Y-192857200D02*
X183148628Y-192928628D01*
X183077200Y-193000057D01*
X183005771Y-192928628D01*
X183077200Y-192857200D01*
X183077200Y-193000057D01*
X184862914Y-193357200D02*
X185577200Y-193357200D01*
X184720057Y-193785771D02*
X185220057Y-192285771D01*
X185720057Y-193785771D01*
X186862914Y-192785771D02*
X186862914Y-193785771D01*
X186505771Y-192214342D02*
X186148628Y-193285771D01*
X187077200Y-193285771D01*
D10*
D11*
X263434342Y-196585771D02*
X263434342Y-195085771D01*
X264791485Y-196585771D02*
X264791485Y-195085771D01*
X264791485Y-196514342D02*
X264648628Y-196585771D01*
X264362914Y-196585771D01*
X264220057Y-196514342D01*
X264148628Y-196442914D01*
X264077200Y-196300057D01*
X264077200Y-195871485D01*
X264148628Y-195728628D01*
X264220057Y-195657200D01*
X264362914Y-195585771D01*
X264648628Y-195585771D01*
X264791485Y-195657200D01*
X265505771Y-196442914D02*
X265577200Y-196514342D01*
X265505771Y-196585771D01*
X265434342Y-196514342D01*
X265505771Y-196442914D01*
X265505771Y-196585771D01*
X265505771Y-195657200D02*
X265577200Y-195728628D01*
X265505771Y-195800057D01*
X265434342Y-195728628D01*
X265505771Y-195657200D01*
X265505771Y-195800057D01*
X268148628Y-196585771D02*
X267291485Y-196585771D01*
X267720057Y-196585771D02*
X267720057Y-195085771D01*
X267577200Y-195300057D01*
X267434342Y-195442914D01*
X267291485Y-195514342D01*
X269862914Y-195014342D02*
X268577200Y-196942914D01*
X271148628Y-196585771D02*
X270291485Y-196585771D01*
X270720057Y-196585771D02*
X270720057Y-195085771D01*
X270577200Y-195300057D01*
X270434342Y-195442914D01*
X270291485Y-195514342D01*
D10*
D11*
X177002200Y-187507200D02*
X285002200Y-187507200D01*
D10*
D13*
X178714580Y-188211961D02*
X179857438Y-188211961D01*
X179036009Y-190211961D02*
X179286009Y-188211961D01*
X180274104Y-190211961D02*
X180440771Y-188878628D01*
X180524104Y-188211961D02*
X180416961Y-188307200D01*
X180500295Y-188402438D01*
X180607438Y-188307200D01*
X180524104Y-188211961D01*
X180500295Y-188402438D01*
X181107438Y-188878628D02*
X181869342Y-188878628D01*
X181476485Y-188211961D02*
X181262200Y-189926247D01*
X181333628Y-190116723D01*
X181512200Y-190211961D01*
X181702676Y-190211961D01*
X182655057Y-190211961D02*
X182476485Y-190116723D01*
X182405057Y-189926247D01*
X182619342Y-188211961D01*
X184190771Y-190116723D02*
X183988390Y-190211961D01*
X183607438Y-190211961D01*
X183428866Y-190116723D01*
X183357438Y-189926247D01*
X183452676Y-189164342D01*
X183571723Y-188973866D01*
X183774104Y-188878628D01*
X184155057Y-188878628D01*
X184333628Y-188973866D01*
X184405057Y-189164342D01*
X184381247Y-189354819D01*
X183405057Y-189545295D01*
X185155057Y-190021485D02*
X185238390Y-190116723D01*
X185131247Y-190211961D01*
X185047914Y-190116723D01*
X185155057Y-190021485D01*
X185131247Y-190211961D01*
X185286009Y-188973866D02*
X185369342Y-189069104D01*
X185262200Y-189164342D01*
X185178866Y-189069104D01*
X185286009Y-188973866D01*
X185262200Y-189164342D01*
D10*
D11*
X178934342Y-185600057D02*
X178434342Y-185600057D01*
X178434342Y-186385771D02*
X178434342Y-184885771D01*
X179148628Y-184885771D01*
X179720057Y-186385771D02*
X179720057Y-185385771D01*
X179720057Y-184885771D02*
X179648628Y-184957200D01*
X179720057Y-185028628D01*
X179791485Y-184957200D01*
X179720057Y-184885771D01*
X179720057Y-185028628D01*
X180648628Y-186385771D02*
X180505771Y-186314342D01*
X180434342Y-186171485D01*
X180434342Y-184885771D01*
X181791485Y-186314342D02*
X181648628Y-186385771D01*
X181362914Y-186385771D01*
X181220057Y-186314342D01*
X181148628Y-186171485D01*
X181148628Y-185600057D01*
X181220057Y-185457200D01*
X181362914Y-185385771D01*
X181648628Y-185385771D01*
X181791485Y-185457200D01*
X181862914Y-185600057D01*
X181862914Y-185742914D01*
X181148628Y-185885771D01*
X182505771Y-186242914D02*
X182577200Y-186314342D01*
X182505771Y-186385771D01*
X182434342Y-186314342D01*
X182505771Y-186242914D01*
X182505771Y-186385771D01*
X182505771Y-185457200D02*
X182577200Y-185528628D01*
X182505771Y-185600057D01*
X182434342Y-185528628D01*
X182505771Y-185457200D01*
X182505771Y-185600057D01*
X184862914Y-185600057D02*
X184362914Y-185600057D01*
X184362914Y-186385771D02*
X184362914Y-184885771D01*
X185077200Y-184885771D01*
X185862914Y-186385771D02*
X185720057Y-186314342D01*
X185648628Y-186171485D01*
X185648628Y-184885771D01*
X187077200Y-186385771D02*
X187077200Y-185600057D01*
X187005771Y-185457200D01*
X186862914Y-185385771D01*
X186577200Y-185385771D01*
X186434342Y-185457200D01*
X187077200Y-186314342D02*
X186934342Y-186385771D01*
X186577200Y-186385771D01*
X186434342Y-186314342D01*
X186362914Y-186171485D01*
X186362914Y-186028628D01*
X186434342Y-185885771D01*
X186577200Y-185814342D01*
X186934342Y-185814342D01*
X187077200Y-185742914D01*
X187720057Y-186314342D02*
X187862914Y-186385771D01*
X188148628Y-186385771D01*
X188291485Y-186314342D01*
X188362914Y-186171485D01*
X188362914Y-186100057D01*
X188291485Y-185957200D01*
X188148628Y-185885771D01*
X187934342Y-185885771D01*
X187791485Y-185814342D01*
X187720057Y-185671485D01*
X187720057Y-185600057D01*
X187791485Y-185457200D01*
X187934342Y-185385771D01*
X188148628Y-185385771D01*
X188291485Y-185457200D01*
X189005771Y-186385771D02*
X189005771Y-184885771D01*
X189648628Y-186385771D02*
X189648628Y-185600057D01*
X189577200Y-185457200D01*
X189434342Y-185385771D01*
X189220057Y-185385771D01*
X189077200Y-185457200D01*
X189005771Y-185528628D01*
X190291485Y-186314342D02*
X190505771Y-186385771D01*
X190862914Y-186385771D01*
X191005771Y-186314342D01*
X191077200Y-186242914D01*
X191148628Y-186100057D01*
X191148628Y-185957200D01*
X191077200Y-185814342D01*
X191005771Y-185742914D01*
X190862914Y-185671485D01*
X190577200Y-185600057D01*
X190434342Y-185528628D01*
X190362914Y-185457200D01*
X190291485Y-185314342D01*
X190291485Y-185171485D01*
X190362914Y-185028628D01*
X190434342Y-184957200D01*
X190577200Y-184885771D01*
X190934342Y-184885771D01*
X191148628Y-184957200D01*
X191577200Y-185385771D02*
X192148628Y-185385771D01*
X191791485Y-184885771D02*
X191791485Y-186171485D01*
X191862914Y-186314342D01*
X192005771Y-186385771D01*
X192148628Y-186385771D01*
X192648628Y-186385771D02*
X192648628Y-185385771D01*
X192648628Y-184885771D02*
X192577200Y-184957200D01*
X192648628Y-185028628D01*
X192720057Y-184957200D01*
X192648628Y-184885771D01*
X192648628Y-185028628D01*
X194005771Y-186314342D02*
X193862914Y-186385771D01*
X193577200Y-186385771D01*
X193434342Y-186314342D01*
X193362914Y-186242914D01*
X193291485Y-186100057D01*
X193291485Y-185671485D01*
X193362914Y-185528628D01*
X193434342Y-185457200D01*
X193577200Y-185385771D01*
X193862914Y-185385771D01*
X194005771Y-185457200D01*
X194648628Y-186385771D02*
X194648628Y-184885771D01*
X194791485Y-185814342D02*
X195220057Y-186385771D01*
X195220057Y-185385771D02*
X194648628Y-185957200D01*
X196720057Y-186242914D02*
X196648628Y-186314342D01*
X196434342Y-186385771D01*
X196291485Y-186385771D01*
X196077200Y-186314342D01*
X195934342Y-186171485D01*
X195862914Y-186028628D01*
X195791485Y-185742914D01*
X195791485Y-185528628D01*
X195862914Y-185242914D01*
X195934342Y-185100057D01*
X196077200Y-184957200D01*
X196291485Y-184885771D01*
X196434342Y-184885771D01*
X196648628Y-184957200D01*
X196720057Y-185028628D01*
X197362914Y-186385771D02*
X197362914Y-184885771D01*
X197862914Y-185957200D01*
X198362914Y-184885771D01*
X198362914Y-186385771D01*
X199720057Y-185385771D02*
X199720057Y-186385771D01*
X199362914Y-184814342D02*
X199005771Y-185885771D01*
X199934342Y-185885771D01*
X200505771Y-186242914D02*
X200577200Y-186314342D01*
X200505771Y-186385771D01*
X200434342Y-186314342D01*
X200505771Y-186242914D01*
X200505771Y-186385771D01*
X201220057Y-186385771D02*
X201220057Y-184885771D01*
X201362914Y-185814342D02*
X201791485Y-186385771D01*
X201791485Y-185385771D02*
X201220057Y-185957200D01*
X202434342Y-186385771D02*
X202434342Y-185385771D01*
X202434342Y-184885771D02*
X202362914Y-184957200D01*
X202434342Y-185028628D01*
X202505771Y-184957200D01*
X202434342Y-184885771D01*
X202434342Y-185028628D01*
X203791485Y-186314342D02*
X203648628Y-186385771D01*
X203362914Y-186385771D01*
X203220057Y-186314342D01*
X203148628Y-186242914D01*
X203077200Y-186100057D01*
X203077200Y-185671485D01*
X203148628Y-185528628D01*
X203220057Y-185457200D01*
X203362914Y-185385771D01*
X203648628Y-185385771D01*
X203791485Y-185457200D01*
X205077200Y-186385771D02*
X205077200Y-185600057D01*
X205005771Y-185457200D01*
X204862914Y-185385771D01*
X204577200Y-185385771D01*
X204434342Y-185457200D01*
X205077200Y-186314342D02*
X204934342Y-186385771D01*
X204577200Y-186385771D01*
X204434342Y-186314342D01*
X204362914Y-186171485D01*
X204362914Y-186028628D01*
X204434342Y-185885771D01*
X204577200Y-185814342D01*
X204934342Y-185814342D01*
X205077200Y-185742914D01*
X206434342Y-186385771D02*
X206434342Y-184885771D01*
X206434342Y-186314342D02*
X206291485Y-186385771D01*
X206005771Y-186385771D01*
X205862914Y-186314342D01*
X205791485Y-186242914D01*
X205720057Y-186100057D01*
X205720057Y-185671485D01*
X205791485Y-185528628D01*
X205862914Y-185457200D01*
X206005771Y-185385771D01*
X206291485Y-185385771D01*
X206434342Y-185457200D01*
X206791485Y-186528628D02*
X207934342Y-186528628D01*
X208291485Y-185385771D02*
X208291485Y-186885771D01*
X208291485Y-185457200D02*
X208434342Y-185385771D01*
X208720057Y-185385771D01*
X208862914Y-185457200D01*
X208934342Y-185528628D01*
X209005771Y-185671485D01*
X209005771Y-186100057D01*
X208934342Y-186242914D01*
X208862914Y-186314342D01*
X208720057Y-186385771D01*
X208434342Y-186385771D01*
X208291485Y-186314342D01*
X210291485Y-186314342D02*
X210148628Y-186385771D01*
X209862914Y-186385771D01*
X209720057Y-186314342D01*
X209648628Y-186242914D01*
X209577200Y-186100057D01*
X209577200Y-185671485D01*
X209648628Y-185528628D01*
X209720057Y-185457200D01*
X209862914Y-185385771D01*
X210148628Y-185385771D01*
X210291485Y-185457200D01*
X210934342Y-186385771D02*
X210934342Y-184885771D01*
X210934342Y-185457200D02*
X211077200Y-185385771D01*
X211362914Y-185385771D01*
X211505771Y-185457200D01*
X211577200Y-185528628D01*
X211648628Y-185671485D01*
X211648628Y-186100057D01*
X211577200Y-186242914D01*
X211505771Y-186314342D01*
X211362914Y-186385771D01*
X211077200Y-186385771D01*
X210934342Y-186314342D01*
D10*
D11*
X177002200Y-181507200D02*
X285002200Y-181507200D01*
D10*
D11*
X178362914Y-183614342D02*
X178577200Y-183685771D01*
X178934342Y-183685771D01*
X179077200Y-183614342D01*
X179148628Y-183542914D01*
X179220057Y-183400057D01*
X179220057Y-183257200D01*
X179148628Y-183114342D01*
X179077200Y-183042914D01*
X178934342Y-182971485D01*
X178648628Y-182900057D01*
X178505771Y-182828628D01*
X178434342Y-182757200D01*
X178362914Y-182614342D01*
X178362914Y-182471485D01*
X178434342Y-182328628D01*
X178505771Y-182257200D01*
X178648628Y-182185771D01*
X179005771Y-182185771D01*
X179220057Y-182257200D01*
X179862914Y-183685771D02*
X179862914Y-182185771D01*
X180505771Y-183685771D02*
X180505771Y-182900057D01*
X180434342Y-182757200D01*
X180291485Y-182685771D01*
X180077200Y-182685771D01*
X179934342Y-182757200D01*
X179862914Y-182828628D01*
X181791485Y-183614342D02*
X181648628Y-183685771D01*
X181362914Y-183685771D01*
X181220057Y-183614342D01*
X181148628Y-183471485D01*
X181148628Y-182900057D01*
X181220057Y-182757200D01*
X181362914Y-182685771D01*
X181648628Y-182685771D01*
X181791485Y-182757200D01*
X181862914Y-182900057D01*
X181862914Y-183042914D01*
X181148628Y-183185771D01*
X183077200Y-183614342D02*
X182934342Y-183685771D01*
X182648628Y-183685771D01*
X182505771Y-183614342D01*
X182434342Y-183471485D01*
X182434342Y-182900057D01*
X182505771Y-182757200D01*
X182648628Y-182685771D01*
X182934342Y-182685771D01*
X183077200Y-182757200D01*
X183148628Y-182900057D01*
X183148628Y-183042914D01*
X182434342Y-183185771D01*
X183577200Y-182685771D02*
X184148628Y-182685771D01*
X183791485Y-182185771D02*
X183791485Y-183471485D01*
X183862914Y-183614342D01*
X184005771Y-183685771D01*
X184148628Y-183685771D01*
X184648628Y-183542914D02*
X184720057Y-183614342D01*
X184648628Y-183685771D01*
X184577200Y-183614342D01*
X184648628Y-183542914D01*
X184648628Y-183685771D01*
X184648628Y-182757200D02*
X184720057Y-182828628D01*
X184648628Y-182900057D01*
X184577200Y-182828628D01*
X184648628Y-182757200D01*
X184648628Y-182900057D01*
D10*
D11*
X197002200Y-191507200D02*
X197002200Y-194507200D01*
D10*
D11*
X261002200Y-191507200D02*
X261002200Y-198007200D01*
D14*
X162370000Y-85160000D03*
X166770000Y-87660000D03*
X162370000Y-90160000D03*
D15*
X158040000Y-69230000D03*
X156740000Y-69230000D03*
X157390000Y-67330000D03*
X156740000Y-67330000D03*
X158040000Y-67330000D03*
D10*
G36*
X158377691Y-78356053D02*
G01*
X158398926Y-78359203D01*
X158419750Y-78364419D01*
X158439962Y-78371651D01*
X158459368Y-78380830D01*
X158477781Y-78391866D01*
X158495024Y-78404654D01*
X158510930Y-78419070D01*
X158525346Y-78434976D01*
X158538134Y-78452219D01*
X158549170Y-78470632D01*
X158558349Y-78490038D01*
X158565581Y-78510250D01*
X158570797Y-78531074D01*
X158573947Y-78552309D01*
X158575000Y-78573750D01*
X158575000Y-79086250D01*
X158573947Y-79107691D01*
X158570797Y-79128926D01*
X158565581Y-79149750D01*
X158558349Y-79169962D01*
X158549170Y-79189368D01*
X158538134Y-79207781D01*
X158525346Y-79225024D01*
X158510930Y-79240930D01*
X158495024Y-79255346D01*
X158477781Y-79268134D01*
X158459368Y-79279170D01*
X158439962Y-79288349D01*
X158419750Y-79295581D01*
X158398926Y-79300797D01*
X158377691Y-79303947D01*
X158356250Y-79305000D01*
X157918750Y-79305000D01*
X157897309Y-79303947D01*
X157876074Y-79300797D01*
X157855250Y-79295581D01*
X157835038Y-79288349D01*
X157815632Y-79279170D01*
X157797219Y-79268134D01*
X157779976Y-79255346D01*
X157764070Y-79240930D01*
X157749654Y-79225024D01*
X157736866Y-79207781D01*
X157725830Y-79189368D01*
X157716651Y-79169962D01*
X157709419Y-79149750D01*
X157704203Y-79128926D01*
X157701053Y-79107691D01*
X157700000Y-79086250D01*
X157700000Y-78573750D01*
X157701053Y-78552309D01*
X157704203Y-78531074D01*
X157709419Y-78510250D01*
X157716651Y-78490038D01*
X157725830Y-78470632D01*
X157736866Y-78452219D01*
X157749654Y-78434976D01*
X157764070Y-78419070D01*
X157779976Y-78404654D01*
X157797219Y-78391866D01*
X157815632Y-78380830D01*
X157835038Y-78371651D01*
X157855250Y-78364419D01*
X157876074Y-78359203D01*
X157897309Y-78356053D01*
X157918750Y-78355000D01*
X158356250Y-78355000D01*
X158377691Y-78356053D01*
G37*
G36*
X156802691Y-78356053D02*
G01*
X156823926Y-78359203D01*
X156844750Y-78364419D01*
X156864962Y-78371651D01*
X156884368Y-78380830D01*
X156902781Y-78391866D01*
X156920024Y-78404654D01*
X156935930Y-78419070D01*
X156950346Y-78434976D01*
X156963134Y-78452219D01*
X156974170Y-78470632D01*
X156983349Y-78490038D01*
X156990581Y-78510250D01*
X156995797Y-78531074D01*
X156998947Y-78552309D01*
X157000000Y-78573750D01*
X157000000Y-79086250D01*
X156998947Y-79107691D01*
X156995797Y-79128926D01*
X156990581Y-79149750D01*
X156983349Y-79169962D01*
X156974170Y-79189368D01*
X156963134Y-79207781D01*
X156950346Y-79225024D01*
X156935930Y-79240930D01*
X156920024Y-79255346D01*
X156902781Y-79268134D01*
X156884368Y-79279170D01*
X156864962Y-79288349D01*
X156844750Y-79295581D01*
X156823926Y-79300797D01*
X156802691Y-79303947D01*
X156781250Y-79305000D01*
X156343750Y-79305000D01*
X156322309Y-79303947D01*
X156301074Y-79300797D01*
X156280250Y-79295581D01*
X156260038Y-79288349D01*
X156240632Y-79279170D01*
X156222219Y-79268134D01*
X156204976Y-79255346D01*
X156189070Y-79240930D01*
X156174654Y-79225024D01*
X156161866Y-79207781D01*
X156150830Y-79189368D01*
X156141651Y-79169962D01*
X156134419Y-79149750D01*
X156129203Y-79128926D01*
X156126053Y-79107691D01*
X156125000Y-79086250D01*
X156125000Y-78573750D01*
X156126053Y-78552309D01*
X156129203Y-78531074D01*
X156134419Y-78510250D01*
X156141651Y-78490038D01*
X156150830Y-78470632D01*
X156161866Y-78452219D01*
X156174654Y-78434976D01*
X156189070Y-78419070D01*
X156204976Y-78404654D01*
X156222219Y-78391866D01*
X156240632Y-78380830D01*
X156260038Y-78371651D01*
X156280250Y-78364419D01*
X156301074Y-78359203D01*
X156322309Y-78356053D01*
X156343750Y-78355000D01*
X156781250Y-78355000D01*
X156802691Y-78356053D01*
G37*
G36*
X156812691Y-74946053D02*
G01*
X156833926Y-74949203D01*
X156854750Y-74954419D01*
X156874962Y-74961651D01*
X156894368Y-74970830D01*
X156912781Y-74981866D01*
X156930024Y-74994654D01*
X156945930Y-75009070D01*
X156960346Y-75024976D01*
X156973134Y-75042219D01*
X156984170Y-75060632D01*
X156993349Y-75080038D01*
X157000581Y-75100250D01*
X157005797Y-75121074D01*
X157008947Y-75142309D01*
X157010000Y-75163750D01*
X157010000Y-75676250D01*
X157008947Y-75697691D01*
X157005797Y-75718926D01*
X157000581Y-75739750D01*
X156993349Y-75759962D01*
X156984170Y-75779368D01*
X156973134Y-75797781D01*
X156960346Y-75815024D01*
X156945930Y-75830930D01*
X156930024Y-75845346D01*
X156912781Y-75858134D01*
X156894368Y-75869170D01*
X156874962Y-75878349D01*
X156854750Y-75885581D01*
X156833926Y-75890797D01*
X156812691Y-75893947D01*
X156791250Y-75895000D01*
X156353750Y-75895000D01*
X156332309Y-75893947D01*
X156311074Y-75890797D01*
X156290250Y-75885581D01*
X156270038Y-75878349D01*
X156250632Y-75869170D01*
X156232219Y-75858134D01*
X156214976Y-75845346D01*
X156199070Y-75830930D01*
X156184654Y-75815024D01*
X156171866Y-75797781D01*
X156160830Y-75779368D01*
X156151651Y-75759962D01*
X156144419Y-75739750D01*
X156139203Y-75718926D01*
X156136053Y-75697691D01*
X156135000Y-75676250D01*
X156135000Y-75163750D01*
X156136053Y-75142309D01*
X156139203Y-75121074D01*
X156144419Y-75100250D01*
X156151651Y-75080038D01*
X156160830Y-75060632D01*
X156171866Y-75042219D01*
X156184654Y-75024976D01*
X156199070Y-75009070D01*
X156214976Y-74994654D01*
X156232219Y-74981866D01*
X156250632Y-74970830D01*
X156270038Y-74961651D01*
X156290250Y-74954419D01*
X156311074Y-74949203D01*
X156332309Y-74946053D01*
X156353750Y-74945000D01*
X156791250Y-74945000D01*
X156812691Y-74946053D01*
G37*
G36*
X158387691Y-74946053D02*
G01*
X158408926Y-74949203D01*
X158429750Y-74954419D01*
X158449962Y-74961651D01*
X158469368Y-74970830D01*
X158487781Y-74981866D01*
X158505024Y-74994654D01*
X158520930Y-75009070D01*
X158535346Y-75024976D01*
X158548134Y-75042219D01*
X158559170Y-75060632D01*
X158568349Y-75080038D01*
X158575581Y-75100250D01*
X158580797Y-75121074D01*
X158583947Y-75142309D01*
X158585000Y-75163750D01*
X158585000Y-75676250D01*
X158583947Y-75697691D01*
X158580797Y-75718926D01*
X158575581Y-75739750D01*
X158568349Y-75759962D01*
X158559170Y-75779368D01*
X158548134Y-75797781D01*
X158535346Y-75815024D01*
X158520930Y-75830930D01*
X158505024Y-75845346D01*
X158487781Y-75858134D01*
X158469368Y-75869170D01*
X158449962Y-75878349D01*
X158429750Y-75885581D01*
X158408926Y-75890797D01*
X158387691Y-75893947D01*
X158366250Y-75895000D01*
X157928750Y-75895000D01*
X157907309Y-75893947D01*
X157886074Y-75890797D01*
X157865250Y-75885581D01*
X157845038Y-75878349D01*
X157825632Y-75869170D01*
X157807219Y-75858134D01*
X157789976Y-75845346D01*
X157774070Y-75830930D01*
X157759654Y-75815024D01*
X157746866Y-75797781D01*
X157735830Y-75779368D01*
X157726651Y-75759962D01*
X157719419Y-75739750D01*
X157714203Y-75718926D01*
X157711053Y-75697691D01*
X157710000Y-75676250D01*
X157710000Y-75163750D01*
X157711053Y-75142309D01*
X157714203Y-75121074D01*
X157719419Y-75100250D01*
X157726651Y-75080038D01*
X157735830Y-75060632D01*
X157746866Y-75042219D01*
X157759654Y-75024976D01*
X157774070Y-75009070D01*
X157789976Y-74994654D01*
X157807219Y-74981866D01*
X157825632Y-74970830D01*
X157845038Y-74961651D01*
X157865250Y-74954419D01*
X157886074Y-74949203D01*
X157907309Y-74946053D01*
X157928750Y-74945000D01*
X158366250Y-74945000D01*
X158387691Y-74946053D01*
G37*
G36*
X158347691Y-71376053D02*
G01*
X158368926Y-71379203D01*
X158389750Y-71384419D01*
X158409962Y-71391651D01*
X158429368Y-71400830D01*
X158447781Y-71411866D01*
X158465024Y-71424654D01*
X158480930Y-71439070D01*
X158495346Y-71454976D01*
X158508134Y-71472219D01*
X158519170Y-71490632D01*
X158528349Y-71510038D01*
X158535581Y-71530250D01*
X158540797Y-71551074D01*
X158543947Y-71572309D01*
X158545000Y-71593750D01*
X158545000Y-72106250D01*
X158543947Y-72127691D01*
X158540797Y-72148926D01*
X158535581Y-72169750D01*
X158528349Y-72189962D01*
X158519170Y-72209368D01*
X158508134Y-72227781D01*
X158495346Y-72245024D01*
X158480930Y-72260930D01*
X158465024Y-72275346D01*
X158447781Y-72288134D01*
X158429368Y-72299170D01*
X158409962Y-72308349D01*
X158389750Y-72315581D01*
X158368926Y-72320797D01*
X158347691Y-72323947D01*
X158326250Y-72325000D01*
X157888750Y-72325000D01*
X157867309Y-72323947D01*
X157846074Y-72320797D01*
X157825250Y-72315581D01*
X157805038Y-72308349D01*
X157785632Y-72299170D01*
X157767219Y-72288134D01*
X157749976Y-72275346D01*
X157734070Y-72260930D01*
X157719654Y-72245024D01*
X157706866Y-72227781D01*
X157695830Y-72209368D01*
X157686651Y-72189962D01*
X157679419Y-72169750D01*
X157674203Y-72148926D01*
X157671053Y-72127691D01*
X157670000Y-72106250D01*
X157670000Y-71593750D01*
X157671053Y-71572309D01*
X157674203Y-71551074D01*
X157679419Y-71530250D01*
X157686651Y-71510038D01*
X157695830Y-71490632D01*
X157706866Y-71472219D01*
X157719654Y-71454976D01*
X157734070Y-71439070D01*
X157749976Y-71424654D01*
X157767219Y-71411866D01*
X157785632Y-71400830D01*
X157805038Y-71391651D01*
X157825250Y-71384419D01*
X157846074Y-71379203D01*
X157867309Y-71376053D01*
X157888750Y-71375000D01*
X158326250Y-71375000D01*
X158347691Y-71376053D01*
G37*
G36*
X156772691Y-71376053D02*
G01*
X156793926Y-71379203D01*
X156814750Y-71384419D01*
X156834962Y-71391651D01*
X156854368Y-71400830D01*
X156872781Y-71411866D01*
X156890024Y-71424654D01*
X156905930Y-71439070D01*
X156920346Y-71454976D01*
X156933134Y-71472219D01*
X156944170Y-71490632D01*
X156953349Y-71510038D01*
X156960581Y-71530250D01*
X156965797Y-71551074D01*
X156968947Y-71572309D01*
X156970000Y-71593750D01*
X156970000Y-72106250D01*
X156968947Y-72127691D01*
X156965797Y-72148926D01*
X156960581Y-72169750D01*
X156953349Y-72189962D01*
X156944170Y-72209368D01*
X156933134Y-72227781D01*
X156920346Y-72245024D01*
X156905930Y-72260930D01*
X156890024Y-72275346D01*
X156872781Y-72288134D01*
X156854368Y-72299170D01*
X156834962Y-72308349D01*
X156814750Y-72315581D01*
X156793926Y-72320797D01*
X156772691Y-72323947D01*
X156751250Y-72325000D01*
X156313750Y-72325000D01*
X156292309Y-72323947D01*
X156271074Y-72320797D01*
X156250250Y-72315581D01*
X156230038Y-72308349D01*
X156210632Y-72299170D01*
X156192219Y-72288134D01*
X156174976Y-72275346D01*
X156159070Y-72260930D01*
X156144654Y-72245024D01*
X156131866Y-72227781D01*
X156120830Y-72209368D01*
X156111651Y-72189962D01*
X156104419Y-72169750D01*
X156099203Y-72148926D01*
X156096053Y-72127691D01*
X156095000Y-72106250D01*
X156095000Y-71593750D01*
X156096053Y-71572309D01*
X156099203Y-71551074D01*
X156104419Y-71530250D01*
X156111651Y-71510038D01*
X156120830Y-71490632D01*
X156131866Y-71472219D01*
X156144654Y-71454976D01*
X156159070Y-71439070D01*
X156174976Y-71424654D01*
X156192219Y-71411866D01*
X156210632Y-71400830D01*
X156230038Y-71391651D01*
X156250250Y-71384419D01*
X156271074Y-71379203D01*
X156292309Y-71376053D01*
X156313750Y-71375000D01*
X156751250Y-71375000D01*
X156772691Y-71376053D01*
G37*
D16*
X120600000Y-61500000D03*
X121000000Y-64580000D03*
X120600000Y-64580000D03*
X121000000Y-61500000D03*
X120200000Y-64580000D03*
X120200000Y-61500000D03*
X125800000Y-61500000D03*
X128600000Y-64580000D03*
X130200000Y-61500000D03*
X131000000Y-64580000D03*
X131000000Y-61500000D03*
X132200000Y-61500000D03*
X133000000Y-64580000D03*
X129800000Y-64580000D03*
X129000000Y-61500000D03*
X133400000Y-64580000D03*
X126600000Y-61500000D03*
X128200000Y-61500000D03*
X130200000Y-64580000D03*
X131400000Y-61500000D03*
X127400000Y-61500000D03*
X127800000Y-64580000D03*
X129800000Y-61500000D03*
X132600000Y-64580000D03*
X133800000Y-61500000D03*
X123800000Y-64580000D03*
X125400000Y-61500000D03*
X131800000Y-64580000D03*
X121400000Y-64580000D03*
X132600000Y-61500000D03*
X121400000Y-61500000D03*
X122600000Y-64580000D03*
X123000000Y-64580000D03*
X123000000Y-61500000D03*
X125000000Y-64580000D03*
X127400000Y-64580000D03*
X123400000Y-61500000D03*
X128600000Y-61500000D03*
X125400000Y-64580000D03*
X133000000Y-61500000D03*
X124200000Y-64580000D03*
X127000000Y-61500000D03*
X127800000Y-61500000D03*
X129400000Y-64580000D03*
X126200000Y-64580000D03*
X128200000Y-64580000D03*
X131800000Y-61500000D03*
X132200000Y-64580000D03*
X133800000Y-64580000D03*
X126200000Y-61500000D03*
X124600000Y-64580000D03*
X131400000Y-64580000D03*
X130600000Y-61500000D03*
X125800000Y-64580000D03*
X129000000Y-64580000D03*
X126600000Y-64580000D03*
X121800000Y-64580000D03*
X133400000Y-61500000D03*
X121800000Y-61500000D03*
X122200000Y-64580000D03*
X122200000Y-61500000D03*
X122600000Y-61500000D03*
X123400000Y-64580000D03*
X130600000Y-64580000D03*
X129400000Y-61500000D03*
X123800000Y-61500000D03*
X124200000Y-61500000D03*
X127000000Y-64580000D03*
X125000000Y-61500000D03*
X124600000Y-61500000D03*
X139800000Y-64580000D03*
X138200000Y-61500000D03*
X134200000Y-61500000D03*
X138600000Y-64580000D03*
X137400000Y-61500000D03*
X138600000Y-61500000D03*
X134600000Y-64580000D03*
X134600000Y-61500000D03*
X135400000Y-61500000D03*
X135800000Y-64580000D03*
X139000000Y-64580000D03*
X139400000Y-61500000D03*
X135000000Y-64580000D03*
X135000000Y-61500000D03*
X135400000Y-64580000D03*
X136200000Y-61500000D03*
X135800000Y-61500000D03*
X136200000Y-64580000D03*
X139400000Y-64580000D03*
X137400000Y-64580000D03*
X138200000Y-64580000D03*
X136600000Y-64580000D03*
X137000000Y-61500000D03*
X139000000Y-61500000D03*
X137000000Y-64580000D03*
X134200000Y-64580000D03*
X139800000Y-61500000D03*
X136600000Y-61500000D03*
X137800000Y-64580000D03*
X137800000Y-61500000D03*
X128200000Y-98500000D03*
X121000000Y-95420000D03*
X123400000Y-98500000D03*
X126600000Y-98500000D03*
X125800000Y-98500000D03*
X121800000Y-98500000D03*
X124200000Y-98500000D03*
X127400000Y-98500000D03*
X126200000Y-95420000D03*
X126600000Y-95420000D03*
X127000000Y-98500000D03*
X120600000Y-98500000D03*
X122600000Y-95420000D03*
X123400000Y-95420000D03*
X120200000Y-98500000D03*
X120200000Y-95420000D03*
X125000000Y-98500000D03*
X120600000Y-95420000D03*
X122200000Y-95420000D03*
X126200000Y-98500000D03*
X123000000Y-98500000D03*
X125000000Y-95420000D03*
X122600000Y-98500000D03*
X121000000Y-98500000D03*
X122200000Y-98500000D03*
X127000000Y-95420000D03*
X121400000Y-98500000D03*
X124600000Y-95420000D03*
X127400000Y-95420000D03*
X121400000Y-95420000D03*
X124200000Y-95420000D03*
X125400000Y-98500000D03*
X127800000Y-98500000D03*
X125400000Y-95420000D03*
X123800000Y-98500000D03*
X123800000Y-95420000D03*
X124600000Y-98500000D03*
X127800000Y-95420000D03*
X123000000Y-95420000D03*
X121800000Y-95420000D03*
X125800000Y-95420000D03*
X132200000Y-98500000D03*
X137400000Y-98500000D03*
X135400000Y-95420000D03*
X133800000Y-98500000D03*
X131800000Y-98500000D03*
X139800000Y-98500000D03*
X130200000Y-95420000D03*
X133400000Y-95420000D03*
X137400000Y-95420000D03*
X137800000Y-95420000D03*
X139400000Y-95420000D03*
X133000000Y-98500000D03*
X131000000Y-95420000D03*
X135000000Y-98500000D03*
X128600000Y-98500000D03*
X131000000Y-98500000D03*
X135400000Y-98500000D03*
X136200000Y-95420000D03*
X129800000Y-95420000D03*
X128600000Y-95420000D03*
X132600000Y-95420000D03*
X133400000Y-98500000D03*
X137800000Y-98500000D03*
X138200000Y-95420000D03*
X134200000Y-95420000D03*
X129800000Y-98500000D03*
X131800000Y-95420000D03*
X132600000Y-98500000D03*
X135800000Y-98500000D03*
X135000000Y-95420000D03*
X137000000Y-98500000D03*
X139000000Y-95420000D03*
X129000000Y-98500000D03*
X129000000Y-95420000D03*
X136600000Y-98500000D03*
X129400000Y-98500000D03*
X134600000Y-95420000D03*
X137000000Y-95420000D03*
X130600000Y-98500000D03*
X131400000Y-98500000D03*
X134200000Y-98500000D03*
X136200000Y-98500000D03*
X138600000Y-98500000D03*
X136600000Y-95420000D03*
X139800000Y-95420000D03*
X138200000Y-98500000D03*
X128200000Y-95420000D03*
X130200000Y-98500000D03*
X129400000Y-95420000D03*
X130600000Y-95420000D03*
X133800000Y-95420000D03*
X132200000Y-95420000D03*
X139000000Y-98500000D03*
X139400000Y-98500000D03*
X131400000Y-95420000D03*
X133000000Y-95420000D03*
X134600000Y-98500000D03*
X138600000Y-95420000D03*
X135800000Y-95420000D03*
D10*
G36*
X167127691Y-77926053D02*
G01*
X167148926Y-77929203D01*
X167169750Y-77934419D01*
X167189962Y-77941651D01*
X167209368Y-77950830D01*
X167227781Y-77961866D01*
X167245024Y-77974654D01*
X167260930Y-77989070D01*
X167275346Y-78004976D01*
X167288134Y-78022219D01*
X167299170Y-78040632D01*
X167308349Y-78060038D01*
X167315581Y-78080250D01*
X167320797Y-78101074D01*
X167323947Y-78122309D01*
X167325000Y-78143750D01*
X167325000Y-78656250D01*
X167323947Y-78677691D01*
X167320797Y-78698926D01*
X167315581Y-78719750D01*
X167308349Y-78739962D01*
X167299170Y-78759368D01*
X167288134Y-78777781D01*
X167275346Y-78795024D01*
X167260930Y-78810930D01*
X167245024Y-78825346D01*
X167227781Y-78838134D01*
X167209368Y-78849170D01*
X167189962Y-78858349D01*
X167169750Y-78865581D01*
X167148926Y-78870797D01*
X167127691Y-78873947D01*
X167106250Y-78875000D01*
X166668750Y-78875000D01*
X166647309Y-78873947D01*
X166626074Y-78870797D01*
X166605250Y-78865581D01*
X166585038Y-78858349D01*
X166565632Y-78849170D01*
X166547219Y-78838134D01*
X166529976Y-78825346D01*
X166514070Y-78810930D01*
X166499654Y-78795024D01*
X166486866Y-78777781D01*
X166475830Y-78759368D01*
X166466651Y-78739962D01*
X166459419Y-78719750D01*
X166454203Y-78698926D01*
X166451053Y-78677691D01*
X166450000Y-78656250D01*
X166450000Y-78143750D01*
X166451053Y-78122309D01*
X166454203Y-78101074D01*
X166459419Y-78080250D01*
X166466651Y-78060038D01*
X166475830Y-78040632D01*
X166486866Y-78022219D01*
X166499654Y-78004976D01*
X166514070Y-77989070D01*
X166529976Y-77974654D01*
X166547219Y-77961866D01*
X166565632Y-77950830D01*
X166585038Y-77941651D01*
X166605250Y-77934419D01*
X166626074Y-77929203D01*
X166647309Y-77926053D01*
X166668750Y-77925000D01*
X167106250Y-77925000D01*
X167127691Y-77926053D01*
G37*
G36*
X165552691Y-77926053D02*
G01*
X165573926Y-77929203D01*
X165594750Y-77934419D01*
X165614962Y-77941651D01*
X165634368Y-77950830D01*
X165652781Y-77961866D01*
X165670024Y-77974654D01*
X165685930Y-77989070D01*
X165700346Y-78004976D01*
X165713134Y-78022219D01*
X165724170Y-78040632D01*
X165733349Y-78060038D01*
X165740581Y-78080250D01*
X165745797Y-78101074D01*
X165748947Y-78122309D01*
X165750000Y-78143750D01*
X165750000Y-78656250D01*
X165748947Y-78677691D01*
X165745797Y-78698926D01*
X165740581Y-78719750D01*
X165733349Y-78739962D01*
X165724170Y-78759368D01*
X165713134Y-78777781D01*
X165700346Y-78795024D01*
X165685930Y-78810930D01*
X165670024Y-78825346D01*
X165652781Y-78838134D01*
X165634368Y-78849170D01*
X165614962Y-78858349D01*
X165594750Y-78865581D01*
X165573926Y-78870797D01*
X165552691Y-78873947D01*
X165531250Y-78875000D01*
X165093750Y-78875000D01*
X165072309Y-78873947D01*
X165051074Y-78870797D01*
X165030250Y-78865581D01*
X165010038Y-78858349D01*
X164990632Y-78849170D01*
X164972219Y-78838134D01*
X164954976Y-78825346D01*
X164939070Y-78810930D01*
X164924654Y-78795024D01*
X164911866Y-78777781D01*
X164900830Y-78759368D01*
X164891651Y-78739962D01*
X164884419Y-78719750D01*
X164879203Y-78698926D01*
X164876053Y-78677691D01*
X164875000Y-78656250D01*
X164875000Y-78143750D01*
X164876053Y-78122309D01*
X164879203Y-78101074D01*
X164884419Y-78080250D01*
X164891651Y-78060038D01*
X164900830Y-78040632D01*
X164911866Y-78022219D01*
X164924654Y-78004976D01*
X164939070Y-77989070D01*
X164954976Y-77974654D01*
X164972219Y-77961866D01*
X164990632Y-77950830D01*
X165010038Y-77941651D01*
X165030250Y-77934419D01*
X165051074Y-77929203D01*
X165072309Y-77926053D01*
X165093750Y-77925000D01*
X165531250Y-77925000D01*
X165552691Y-77926053D01*
G37*
G36*
X167077691Y-73556053D02*
G01*
X167098926Y-73559203D01*
X167119750Y-73564419D01*
X167139962Y-73571651D01*
X167159368Y-73580830D01*
X167177781Y-73591866D01*
X167195024Y-73604654D01*
X167210930Y-73619070D01*
X167225346Y-73634976D01*
X167238134Y-73652219D01*
X167249170Y-73670632D01*
X167258349Y-73690038D01*
X167265581Y-73710250D01*
X167270797Y-73731074D01*
X167273947Y-73752309D01*
X167275000Y-73773750D01*
X167275000Y-74286250D01*
X167273947Y-74307691D01*
X167270797Y-74328926D01*
X167265581Y-74349750D01*
X167258349Y-74369962D01*
X167249170Y-74389368D01*
X167238134Y-74407781D01*
X167225346Y-74425024D01*
X167210930Y-74440930D01*
X167195024Y-74455346D01*
X167177781Y-74468134D01*
X167159368Y-74479170D01*
X167139962Y-74488349D01*
X167119750Y-74495581D01*
X167098926Y-74500797D01*
X167077691Y-74503947D01*
X167056250Y-74505000D01*
X166618750Y-74505000D01*
X166597309Y-74503947D01*
X166576074Y-74500797D01*
X166555250Y-74495581D01*
X166535038Y-74488349D01*
X166515632Y-74479170D01*
X166497219Y-74468134D01*
X166479976Y-74455346D01*
X166464070Y-74440930D01*
X166449654Y-74425024D01*
X166436866Y-74407781D01*
X166425830Y-74389368D01*
X166416651Y-74369962D01*
X166409419Y-74349750D01*
X166404203Y-74328926D01*
X166401053Y-74307691D01*
X166400000Y-74286250D01*
X166400000Y-73773750D01*
X166401053Y-73752309D01*
X166404203Y-73731074D01*
X166409419Y-73710250D01*
X166416651Y-73690038D01*
X166425830Y-73670632D01*
X166436866Y-73652219D01*
X166449654Y-73634976D01*
X166464070Y-73619070D01*
X166479976Y-73604654D01*
X166497219Y-73591866D01*
X166515632Y-73580830D01*
X166535038Y-73571651D01*
X166555250Y-73564419D01*
X166576074Y-73559203D01*
X166597309Y-73556053D01*
X166618750Y-73555000D01*
X167056250Y-73555000D01*
X167077691Y-73556053D01*
G37*
G36*
X165502691Y-73556053D02*
G01*
X165523926Y-73559203D01*
X165544750Y-73564419D01*
X165564962Y-73571651D01*
X165584368Y-73580830D01*
X165602781Y-73591866D01*
X165620024Y-73604654D01*
X165635930Y-73619070D01*
X165650346Y-73634976D01*
X165663134Y-73652219D01*
X165674170Y-73670632D01*
X165683349Y-73690038D01*
X165690581Y-73710250D01*
X165695797Y-73731074D01*
X165698947Y-73752309D01*
X165700000Y-73773750D01*
X165700000Y-74286250D01*
X165698947Y-74307691D01*
X165695797Y-74328926D01*
X165690581Y-74349750D01*
X165683349Y-74369962D01*
X165674170Y-74389368D01*
X165663134Y-74407781D01*
X165650346Y-74425024D01*
X165635930Y-74440930D01*
X165620024Y-74455346D01*
X165602781Y-74468134D01*
X165584368Y-74479170D01*
X165564962Y-74488349D01*
X165544750Y-74495581D01*
X165523926Y-74500797D01*
X165502691Y-74503947D01*
X165481250Y-74505000D01*
X165043750Y-74505000D01*
X165022309Y-74503947D01*
X165001074Y-74500797D01*
X164980250Y-74495581D01*
X164960038Y-74488349D01*
X164940632Y-74479170D01*
X164922219Y-74468134D01*
X164904976Y-74455346D01*
X164889070Y-74440930D01*
X164874654Y-74425024D01*
X164861866Y-74407781D01*
X164850830Y-74389368D01*
X164841651Y-74369962D01*
X164834419Y-74349750D01*
X164829203Y-74328926D01*
X164826053Y-74307691D01*
X164825000Y-74286250D01*
X164825000Y-73773750D01*
X164826053Y-73752309D01*
X164829203Y-73731074D01*
X164834419Y-73710250D01*
X164841651Y-73690038D01*
X164850830Y-73670632D01*
X164861866Y-73652219D01*
X164874654Y-73634976D01*
X164889070Y-73619070D01*
X164904976Y-73604654D01*
X164922219Y-73591866D01*
X164940632Y-73580830D01*
X164960038Y-73571651D01*
X164980250Y-73564419D01*
X165001074Y-73559203D01*
X165022309Y-73556053D01*
X165043750Y-73555000D01*
X165481250Y-73555000D01*
X165502691Y-73556053D01*
G37*
G36*
X167147691Y-69256053D02*
G01*
X167168926Y-69259203D01*
X167189750Y-69264419D01*
X167209962Y-69271651D01*
X167229368Y-69280830D01*
X167247781Y-69291866D01*
X167265024Y-69304654D01*
X167280930Y-69319070D01*
X167295346Y-69334976D01*
X167308134Y-69352219D01*
X167319170Y-69370632D01*
X167328349Y-69390038D01*
X167335581Y-69410250D01*
X167340797Y-69431074D01*
X167343947Y-69452309D01*
X167345000Y-69473750D01*
X167345000Y-69986250D01*
X167343947Y-70007691D01*
X167340797Y-70028926D01*
X167335581Y-70049750D01*
X167328349Y-70069962D01*
X167319170Y-70089368D01*
X167308134Y-70107781D01*
X167295346Y-70125024D01*
X167280930Y-70140930D01*
X167265024Y-70155346D01*
X167247781Y-70168134D01*
X167229368Y-70179170D01*
X167209962Y-70188349D01*
X167189750Y-70195581D01*
X167168926Y-70200797D01*
X167147691Y-70203947D01*
X167126250Y-70205000D01*
X166688750Y-70205000D01*
X166667309Y-70203947D01*
X166646074Y-70200797D01*
X166625250Y-70195581D01*
X166605038Y-70188349D01*
X166585632Y-70179170D01*
X166567219Y-70168134D01*
X166549976Y-70155346D01*
X166534070Y-70140930D01*
X166519654Y-70125024D01*
X166506866Y-70107781D01*
X166495830Y-70089368D01*
X166486651Y-70069962D01*
X166479419Y-70049750D01*
X166474203Y-70028926D01*
X166471053Y-70007691D01*
X166470000Y-69986250D01*
X166470000Y-69473750D01*
X166471053Y-69452309D01*
X166474203Y-69431074D01*
X166479419Y-69410250D01*
X166486651Y-69390038D01*
X166495830Y-69370632D01*
X166506866Y-69352219D01*
X166519654Y-69334976D01*
X166534070Y-69319070D01*
X166549976Y-69304654D01*
X166567219Y-69291866D01*
X166585632Y-69280830D01*
X166605038Y-69271651D01*
X166625250Y-69264419D01*
X166646074Y-69259203D01*
X166667309Y-69256053D01*
X166688750Y-69255000D01*
X167126250Y-69255000D01*
X167147691Y-69256053D01*
G37*
G36*
X165572691Y-69256053D02*
G01*
X165593926Y-69259203D01*
X165614750Y-69264419D01*
X165634962Y-69271651D01*
X165654368Y-69280830D01*
X165672781Y-69291866D01*
X165690024Y-69304654D01*
X165705930Y-69319070D01*
X165720346Y-69334976D01*
X165733134Y-69352219D01*
X165744170Y-69370632D01*
X165753349Y-69390038D01*
X165760581Y-69410250D01*
X165765797Y-69431074D01*
X165768947Y-69452309D01*
X165770000Y-69473750D01*
X165770000Y-69986250D01*
X165768947Y-70007691D01*
X165765797Y-70028926D01*
X165760581Y-70049750D01*
X165753349Y-70069962D01*
X165744170Y-70089368D01*
X165733134Y-70107781D01*
X165720346Y-70125024D01*
X165705930Y-70140930D01*
X165690024Y-70155346D01*
X165672781Y-70168134D01*
X165654368Y-70179170D01*
X165634962Y-70188349D01*
X165614750Y-70195581D01*
X165593926Y-70200797D01*
X165572691Y-70203947D01*
X165551250Y-70205000D01*
X165113750Y-70205000D01*
X165092309Y-70203947D01*
X165071074Y-70200797D01*
X165050250Y-70195581D01*
X165030038Y-70188349D01*
X165010632Y-70179170D01*
X164992219Y-70168134D01*
X164974976Y-70155346D01*
X164959070Y-70140930D01*
X164944654Y-70125024D01*
X164931866Y-70107781D01*
X164920830Y-70089368D01*
X164911651Y-70069962D01*
X164904419Y-70049750D01*
X164899203Y-70028926D01*
X164896053Y-70007691D01*
X164895000Y-69986250D01*
X164895000Y-69473750D01*
X164896053Y-69452309D01*
X164899203Y-69431074D01*
X164904419Y-69410250D01*
X164911651Y-69390038D01*
X164920830Y-69370632D01*
X164931866Y-69352219D01*
X164944654Y-69334976D01*
X164959070Y-69319070D01*
X164974976Y-69304654D01*
X164992219Y-69291866D01*
X165010632Y-69280830D01*
X165030038Y-69271651D01*
X165050250Y-69264419D01*
X165071074Y-69259203D01*
X165092309Y-69256053D01*
X165113750Y-69255000D01*
X165551250Y-69255000D01*
X165572691Y-69256053D01*
G37*
G36*
X91964504Y-90731204D02*
G01*
X91988773Y-90734804D01*
X92012571Y-90740765D01*
X92035671Y-90749030D01*
X92057849Y-90759520D01*
X92078893Y-90772133D01*
X92098598Y-90786747D01*
X92116777Y-90803223D01*
X92133253Y-90821402D01*
X92147867Y-90841107D01*
X92160480Y-90862151D01*
X92170970Y-90884329D01*
X92179235Y-90907429D01*
X92185196Y-90931227D01*
X92188796Y-90955496D01*
X92190000Y-90980000D01*
X92190000Y-92080000D01*
X92188796Y-92104504D01*
X92185196Y-92128773D01*
X92179235Y-92152571D01*
X92170970Y-92175671D01*
X92160480Y-92197849D01*
X92147867Y-92218893D01*
X92133253Y-92238598D01*
X92116777Y-92256777D01*
X92098598Y-92273253D01*
X92078893Y-92287867D01*
X92057849Y-92300480D01*
X92035671Y-92310970D01*
X92012571Y-92319235D01*
X91988773Y-92325196D01*
X91964504Y-92328796D01*
X91940000Y-92330000D01*
X88940000Y-92330000D01*
X88915496Y-92328796D01*
X88891227Y-92325196D01*
X88867429Y-92319235D01*
X88844329Y-92310970D01*
X88822151Y-92300480D01*
X88801107Y-92287867D01*
X88781402Y-92273253D01*
X88763223Y-92256777D01*
X88746747Y-92238598D01*
X88732133Y-92218893D01*
X88719520Y-92197849D01*
X88709030Y-92175671D01*
X88700765Y-92152571D01*
X88694804Y-92128773D01*
X88691204Y-92104504D01*
X88690000Y-92080000D01*
X88690000Y-90980000D01*
X88691204Y-90955496D01*
X88694804Y-90931227D01*
X88700765Y-90907429D01*
X88709030Y-90884329D01*
X88719520Y-90862151D01*
X88732133Y-90841107D01*
X88746747Y-90821402D01*
X88763223Y-90803223D01*
X88781402Y-90786747D01*
X88801107Y-90772133D01*
X88822151Y-90759520D01*
X88844329Y-90749030D01*
X88867429Y-90740765D01*
X88891227Y-90734804D01*
X88915496Y-90731204D01*
X88940000Y-90730000D01*
X91940000Y-90730000D01*
X91964504Y-90731204D01*
G37*
G36*
X97564504Y-90731204D02*
G01*
X97588773Y-90734804D01*
X97612571Y-90740765D01*
X97635671Y-90749030D01*
X97657849Y-90759520D01*
X97678893Y-90772133D01*
X97698598Y-90786747D01*
X97716777Y-90803223D01*
X97733253Y-90821402D01*
X97747867Y-90841107D01*
X97760480Y-90862151D01*
X97770970Y-90884329D01*
X97779235Y-90907429D01*
X97785196Y-90931227D01*
X97788796Y-90955496D01*
X97790000Y-90980000D01*
X97790000Y-92080000D01*
X97788796Y-92104504D01*
X97785196Y-92128773D01*
X97779235Y-92152571D01*
X97770970Y-92175671D01*
X97760480Y-92197849D01*
X97747867Y-92218893D01*
X97733253Y-92238598D01*
X97716777Y-92256777D01*
X97698598Y-92273253D01*
X97678893Y-92287867D01*
X97657849Y-92300480D01*
X97635671Y-92310970D01*
X97612571Y-92319235D01*
X97588773Y-92325196D01*
X97564504Y-92328796D01*
X97540000Y-92330000D01*
X94540000Y-92330000D01*
X94515496Y-92328796D01*
X94491227Y-92325196D01*
X94467429Y-92319235D01*
X94444329Y-92310970D01*
X94422151Y-92300480D01*
X94401107Y-92287867D01*
X94381402Y-92273253D01*
X94363223Y-92256777D01*
X94346747Y-92238598D01*
X94332133Y-92218893D01*
X94319520Y-92197849D01*
X94309030Y-92175671D01*
X94300765Y-92152571D01*
X94294804Y-92128773D01*
X94291204Y-92104504D01*
X94290000Y-92080000D01*
X94290000Y-90980000D01*
X94291204Y-90955496D01*
X94294804Y-90931227D01*
X94300765Y-90907429D01*
X94309030Y-90884329D01*
X94319520Y-90862151D01*
X94332133Y-90841107D01*
X94346747Y-90821402D01*
X94363223Y-90803223D01*
X94381402Y-90786747D01*
X94401107Y-90772133D01*
X94422151Y-90759520D01*
X94444329Y-90749030D01*
X94467429Y-90740765D01*
X94491227Y-90734804D01*
X94515496Y-90731204D01*
X94540000Y-90730000D01*
X97540000Y-90730000D01*
X97564504Y-90731204D01*
G37*
M02*
